<svg width="1200" height="600" viewBox="0 0 1200 600" fill="none" xmlns="http://www.w3.org/2000/svg">
<path d="M101.956 418.971L101.883 241.405C101.883 240.303 101.907 239.789 102.519 239.495C103.18 238.957 104.16 239.226 104.894 238.981L161.79 219.641L162.108 179.98H341.291L341.364 358.942C340.703 359.897 339.895 359.701 339.185 359.799L283.93 378.601C282.754 379.017 281.702 379.017 281.702 380.315L281.653 409.056L281.555 419.02L101.956 418.971Z" fill="black"/>
<path d="M496.579 312.206C493.445 302.83 485.807 297.003 476.161 294.237C482.379 290.956 487.153 288.41 490.263 282.902C495.453 272.472 494.326 259.522 486.786 250.439C482.795 245.616 477.018 243.315 471.289 241.307C466.172 240.107 461.35 239.446 455.988 239.446H400.414L400.463 359.211L458.852 358.991C465.879 358.967 472.415 358.11 478.756 355.613C496.75 349.59 501.916 328.266 496.579 312.206ZM424.529 258.812L451.924 258.689C455.817 258.861 459.611 259.472 462.868 261.382C466.736 263.439 468.621 266.915 468.865 271.493C469.453 282.216 461.08 286.549 451.948 287.064H424.529V258.812ZM471.044 332.796C467.299 337.202 462.182 338.573 456.698 338.94L424.529 338.989V305.596L456.649 305.523C462.06 306.159 467.005 307.751 470.751 311.692C475.182 317.837 475.427 326.332 471.044 332.796Z" fill="black"/>
<path d="M583.195 351.744L582.951 295.387C582.902 284.052 576.708 275.484 565.96 272.007C553.768 268.066 540.475 268.188 528.234 272.276C516.948 276.047 509.995 286.084 510.435 297.762L531.882 298.619C531.931 294.53 532.983 290.393 536.778 288.508C542.531 285.644 549.313 285.497 555.36 287.529C561.896 289.708 561.823 295.803 561.186 301.802L533.301 307.31C519.445 310.027 507.277 316.344 505.588 332.086C504.193 345.257 512.174 356.494 524.806 359.823C537.292 363.128 551.271 360.803 561.578 352.381L563.096 359.162L583.832 359.089L583.195 351.744ZM535.113 342.637C531.172 341.389 528.576 338.304 528.136 334.803C527.132 326.626 535.578 323.713 542.409 322.342L561.431 318.572L561.505 332.771C561.553 339.724 546.277 346.138 535.113 342.637Z" fill="black"/>
<path d="M615.927 358.354L585.937 272.962L608.877 272.888L627.556 333.554L643.592 272.937H665.65L646.824 336.296L635.684 372.799C630.347 390.181 610.443 391.405 595.803 386.704L596.097 370.277C602.683 371.403 611.839 372.995 615.291 367.217C617.054 364.279 617.053 361.635 615.927 358.354Z" fill="black"/>
<path d="M683.448 326.749L665.919 239.52L689.593 239.471L695.224 272.277L705.702 329.515L723.353 240.45L746.831 240.548L763.969 329.49L779.857 239.471L803.556 239.52L779.123 359.138L751.41 359.162L744.163 324.815L734.64 277.442L717.772 359.138L690.205 359.187L683.448 326.749Z" fill="black"/>
<path d="M875.63 347.877L875.41 295.877C875.337 282.951 868.555 274.823 856.412 271.395C844.685 268.066 832.175 268.433 820.693 272.277C809.456 276.047 802.626 285.791 803.091 297.64L824.341 298.521C824.488 294.971 825.1 290.858 828.454 288.949C834.427 285.497 841.919 285.423 848.309 287.676C854.356 289.806 854.233 296.783 853.597 301.949L822.407 308.069C818.563 308.828 814.964 310.297 811.561 311.962C803.458 315.977 798.807 323.419 797.974 332.6C796.872 345.061 804.143 355.662 815.846 359.408C828.136 363.325 843.902 360.95 853.94 352.479C854.649 355.074 854.405 357.106 855.433 359.138H876.438C875.802 355.27 875.655 351.769 875.63 347.877ZM851.614 337.643C840.474 346.261 822.358 345.845 820.669 335.293C819.298 326.675 827.768 323.762 834.868 322.318L853.719 318.425L853.841 332.82C853.866 334.632 853.254 336.37 851.614 337.643Z" fill="black"/>
<path d="M920.212 359.138V273.011H941.927C942.319 276.022 941.535 278.397 942.368 281.408C948.66 272.374 961.464 268.726 972.015 269.461L971.942 290.05C967.413 289.83 963.52 289.585 959.456 290.123C946.995 291.764 942.196 302.389 942.147 314.36L942.001 359.015L920.212 359.138Z" fill="black"/>
<path d="M956.175 336.957L978.16 336.933V359.187H956.175V336.957Z" fill="black"/>
<path d="M1059.05 283.538C1049.03 269.167 1027.44 266.646 1011.58 271.248C1000.95 274.333 992.996 281.702 988.908 291.96C985.382 300.798 984.721 310.248 985.162 319.845C985.945 337.178 992.017 352.895 1009.55 358.991C1021.88 363.3 1035.4 362.81 1047.54 357.669C1056.33 353.972 1062.43 346.677 1065.05 337.496L1044.07 332.012C1042.91 336.541 1040.27 339.455 1036.23 341.438C1030.7 343.861 1024.65 344.082 1019.19 342.099C1010.45 338.965 1007.56 329.76 1007.39 321.289L1066.64 321.216C1066.88 308.73 1066.12 293.723 1059.05 283.538ZM1007.56 305.474C1007.56 299.574 1009.72 293.282 1014.83 289.683C1023.3 283.71 1038.39 285.081 1042.79 295.24C1043.97 298.35 1044.87 300.945 1045.12 305.351L1007.56 305.474Z" fill="black"/>
<path d="M1097.12 336.933H1074.91V359.162H1097.12V336.933Z" fill="black"/>
<path d="M803.556 239.52L779.123 359.138L751.41 359.162L744.163 324.815L734.64 277.442L717.772 359.138L690.205 359.187L683.448 326.749L665.919 239.52L689.593 239.471L695.224 272.277L705.702 329.515L723.353 240.45L746.831 240.548L763.969 329.49L779.857 239.471L803.556 239.52Z" fill="#FEFEFE"/>
<path d="M875.63 347.877L875.41 295.877C875.337 282.951 868.555 274.823 856.412 271.395C844.685 268.066 832.175 268.433 820.693 272.277C809.456 276.047 802.626 285.791 803.091 297.64L824.341 298.521C824.488 294.971 825.1 290.858 828.454 288.949C834.427 285.497 841.919 285.423 848.309 287.676C854.356 289.806 854.233 296.783 853.597 301.949L822.407 308.069C818.563 308.828 814.964 310.297 811.561 311.962C803.458 315.977 798.807 323.419 797.974 332.6C796.872 345.061 804.143 355.662 815.846 359.408C828.136 363.325 843.902 360.95 853.94 352.479C854.649 355.074 854.405 357.106 855.433 359.138H876.438C875.802 355.27 875.655 351.769 875.63 347.877ZM851.614 337.643C840.474 346.261 822.358 345.845 820.669 335.293C819.298 326.675 827.768 323.762 834.868 322.318L853.719 318.425L853.841 332.82C853.866 334.632 853.254 336.37 851.614 337.643Z" fill="#FEFEFE"/>
<path d="M665.65 272.962L646.824 336.296L635.684 372.799C630.347 390.181 610.443 391.405 595.803 386.704L596.097 370.277C602.683 371.403 611.839 372.995 615.291 367.217C617.054 364.279 617.053 361.635 615.927 358.354L585.937 272.962L608.877 272.888L627.556 333.554L643.592 272.937H665.65V272.962Z" fill="#FEFEFE"/>
<path d="M972.015 269.461L971.942 290.05C967.413 289.83 963.52 289.585 959.456 290.123C946.995 291.764 942.196 302.389 942.147 314.36L942.001 359.015L920.212 359.138V273.011H941.927C942.319 276.022 941.535 278.397 942.368 281.408C948.66 272.374 961.464 268.726 972.015 269.461Z" fill="#FEFEFE"/>
<path d="M1097.12 336.933H1074.91V359.162H1097.12V336.933Z" fill="#FDFDFD"/>
<path d="M978.16 336.933V359.187H956.175V336.957L978.16 336.933Z" fill="#FDFDFD"/>
<path d="M1059.05 283.538C1049.03 269.167 1027.44 266.646 1011.58 271.248C1000.95 274.333 992.996 281.702 988.908 291.96C985.382 300.798 984.721 310.248 985.162 319.845C985.945 337.178 992.017 352.895 1009.55 358.991C1021.88 363.3 1035.4 362.81 1047.54 357.669C1056.33 353.972 1062.43 346.677 1065.05 337.496L1044.07 332.012C1042.91 336.541 1040.27 339.455 1036.23 341.438C1030.7 343.861 1024.65 344.082 1019.19 342.099C1010.45 338.965 1007.56 329.76 1007.39 321.289L1066.64 321.216C1066.88 308.73 1066.12 293.723 1059.05 283.538ZM1007.56 305.474C1007.56 299.574 1009.72 293.282 1014.83 289.683C1023.3 283.71 1038.39 285.081 1042.79 295.24C1043.97 298.35 1044.87 300.945 1045.12 305.351L1007.56 305.474Z" fill="#FEFEFE"/>
<path d="M583.195 351.744L582.951 295.387C582.902 284.052 576.708 275.484 565.96 272.007C553.768 268.066 540.475 268.188 528.234 272.276C516.948 276.047 509.995 286.084 510.435 297.762L531.882 298.619C531.931 294.53 532.983 290.393 536.778 288.508C542.531 285.644 549.313 285.497 555.36 287.529C561.896 289.708 561.823 295.803 561.186 301.802L533.301 307.31C519.445 310.027 507.277 316.344 505.588 332.086C504.193 345.257 512.174 356.494 524.806 359.823C537.292 363.128 551.271 360.803 561.578 352.381L563.096 359.162L583.832 359.089L583.195 351.744ZM535.113 342.637C531.172 341.389 528.576 338.304 528.136 334.803C527.132 326.626 535.578 323.713 542.409 322.342L561.431 318.572L561.505 332.771C561.553 339.724 546.277 346.138 535.113 342.637Z" fill="#FEFEFE"/>
<path d="M496.579 312.206C493.445 302.83 485.807 297.003 476.161 294.237C482.379 290.956 487.153 288.41 490.263 282.902C495.453 272.472 494.326 259.522 486.786 250.439C482.795 245.616 477.018 243.315 471.289 241.307C466.172 240.107 461.35 239.446 455.988 239.446H400.414L400.463 359.211L458.852 358.991C465.879 358.967 472.415 358.11 478.756 355.613C496.75 349.59 501.916 328.266 496.579 312.206ZM424.529 258.812L451.924 258.689C455.817 258.861 459.611 259.472 462.868 261.382C466.736 263.439 468.621 266.915 468.865 271.493C469.453 282.216 461.08 286.549 451.948 287.064H424.529V258.812ZM471.044 332.796C467.299 337.202 462.182 338.573 456.698 338.94L424.529 338.989V305.596L456.649 305.523C462.06 306.159 467.005 307.751 470.751 311.692C475.182 317.837 475.427 326.332 471.044 332.796Z" fill="#FEFEFE"/>
<path d="M341.364 358.942C340.703 359.897 339.895 359.701 339.185 359.799C337.325 359.799 335.464 360.044 333.603 360.509H162.818C161.692 360.484 161.104 359.823 160.908 358.746C160.761 312.622 160.688 266.499 160.712 220.375L161.79 219.641L162.108 179.98H341.291L341.364 358.942Z" fill="#FEFEFE"/>
<path d="M336.1 359.334H162.084L161.79 219.641L104.894 238.981C104.258 239.25 103.817 239.544 103.499 239.862C103.254 239.618 102.862 239.422 102.519 239.495C101.907 239.789 101.883 240.303 101.883 241.405L101.956 418.971L281.555 419.02L281.653 409.056L280.453 409.742C280.159 412.361 279.817 414.883 279.425 417.282L171.485 417.209C207.669 405.041 244.073 392.996 280.698 381.073L281.702 380.315C281.702 379.017 282.754 379.017 283.93 378.601L339.185 359.799C338.573 358.82 337.545 359.334 336.1 359.334ZM102.764 241.968C102.764 242.188 102.764 242.433 102.789 242.702C102.789 242.776 102.691 242.457 102.764 241.968Z" fill="#E1E1E1"/>
<path d="M161.888 418.458L102.495 418.409V239.496C103.18 238.957 104.16 239.226 104.894 238.981C104.723 240.572 105.898 242.017 104.919 243.853L103.45 240.646L103.376 240.499C103.376 240.499 103.327 240.695 103.303 240.793C102.862 242.556 103.107 244.269 103.278 245.959C103.768 245.469 104.209 244.808 104.404 245.004C104.527 245.126 104.894 245.689 104.894 245.91C105.139 250.806 106.926 254.797 108.444 259.35L125.508 310.37L135.839 341.07L143.184 363.178L158.558 408.2L161.888 418.458Z" fill="#E9E9E9"/>
<path d="M281.653 409.056C281.653 411.847 280.453 415.079 281.041 418.433L166.393 418.384C168.963 415.985 172.072 416.132 174.888 415.152L191.535 409.326L277.54 380.559C279.229 379.996 280.38 379.36 281.702 380.315L281.653 409.056Z" fill="#E9E9E9"/>
</svg>
