<svg width="1200" height="600" viewBox="0 0 1200 600" fill="none" xmlns="http://www.w3.org/2000/svg">
<path d="M709.128 244.318C709.167 244.009 709.225 243.777 709.36 243.642C710.153 242.772 725.635 242.849 728.089 243.178L748.191 306.961L767.055 246.889L760.735 227H703.388C703.89 232.547 707.099 237.476 707.35 242.965V243.545C708.317 242.134 708.896 242.385 709.109 244.338L709.128 244.318Z" fill="#6A6A6A"/>
<path d="M826.432 244.531L806.853 306.053C805.635 306.981 804.804 307.503 803.857 306.092C796.725 285.526 790.095 264.884 783.987 244.183L784.451 244.028C779.31 244.26 774.149 244.569 768.969 244.995C768.834 246.27 768.196 246.889 767.075 246.869L748.21 306.942L728.109 243.158C725.654 242.83 710.172 242.753 709.38 243.622C709.264 243.758 709.186 243.99 709.148 244.299C708.935 242.366 708.355 242.095 707.408 243.506C708.491 243.661 708.549 244.956 709.225 245.652L740.247 345.135L756.27 345.019L776.353 281.912C780.315 291.035 782.731 299.385 785.495 308.256L796.821 344.42L804.553 344.497C804.978 344.497 805.442 344.574 805.326 344.903L805.944 343.724C808.07 343.84 810.1 343.724 812.052 343.357L843.364 244.589C843.364 244.589 837.72 244.569 826.413 244.511L826.432 244.531Z" fill="white"/>
<path d="M804.533 344.536L796.802 344.458L785.476 308.295C782.692 299.423 780.276 291.073 776.333 281.951L756.251 345.058L740.228 345.174C742.914 353.833 744.751 362.898 748.23 372.001L805.77 372.04L797.498 345.212L805.268 345.077L805.326 344.961C805.442 344.632 804.978 344.555 804.553 344.555L804.533 344.536Z" fill="#6A6A6A"/>
<path d="M167.876 249.885C168.224 246.889 168.302 244.164 167.838 241.013L107.379 241.11V348.324L167.857 348.189C168.244 345.135 168.282 342.41 167.857 339.24L116.367 339.124V250.001L167.876 249.904V249.885Z" fill="white"/>
<path d="M227.872 241.013H218.865V348.227H227.872V241.013Z" fill="white"/>
<path d="M261.658 241.013H252.728V348.208H261.658V241.013Z" fill="white"/>
<path d="M193.042 241.013H185.04V348.208H193.042V241.013Z" fill="white"/>
<path d="M681.16 243.101L641.112 282.917L640.861 243.062L622.093 243.216L621.61 261.772C613.608 254.446 605.819 248.107 595.71 245.072C574.217 238.616 551.39 247.623 539.251 266.198C537.686 268.614 536.642 270.837 534.767 273.137C531.771 268.034 529.162 263.395 525.432 259.336C504.441 236.645 468.8 237.843 448.718 260.979C440.58 270.353 436.869 281.158 436.753 293.721C436.618 308.256 441.798 320.781 452.274 330.774C462.383 340.438 474.676 345.463 488.882 344.98C510.742 344.226 524.736 333.422 534.961 314.809C540.817 325.227 548.471 334.388 559.102 339.742C570.757 345.599 584.866 346.623 597.256 342.68C606.707 339.665 614.207 333.422 621.358 326.367C622.692 332.417 621.629 338.679 622.19 345.058H640.88L641.286 312.857C641.305 311.194 641.421 309.493 642.6 308.469C645.094 309.764 646.737 311.349 648.515 313.166L679.807 345.038L706.751 344.884L656.594 294.417L707.389 243.506V242.927L681.141 243.081L681.16 243.101ZM487.645 326.096C469.921 326.096 455.54 311.774 455.54 294.108C455.54 276.442 469.921 262.12 487.645 262.12C505.369 262.12 519.749 276.442 519.749 294.108C519.749 311.774 505.369 326.096 487.645 326.096ZM613.646 304.429C604.968 317.553 593.081 328.648 575.918 325.575C561.827 323.062 551.796 311.175 550.617 296.988C549.418 282.588 557.266 269.078 570.969 263.994C578.507 261.211 587.804 261.366 594.82 265.251C602.784 269.658 608.428 276.616 613.801 283.709L621.455 278.897L621.687 308.256C618.517 307.58 616.7 305.512 613.646 304.429Z" fill="white"/>
<path d="M1092.08 243.236L1065.54 243.023L1025.34 282.898L1025.11 243.023H1006.36C1005.99 245.207 1006.71 246.966 1005.82 249.034C988.017 238.945 966.833 242.231 950.907 253.673C950.172 249.827 950.81 246.734 950.52 243.062H931.714L931.501 265.637C928.447 262.951 926.244 260.129 923.538 257.423C914.009 247.971 901.793 243.197 888.36 243.004C873.632 242.791 860.875 248.609 850.844 258.93C841.412 268.614 837.063 280.366 836.966 293.779C836.87 308.102 841.856 320.491 852.12 330.465C862.422 340.477 875.101 345.618 889.675 345C902.335 344.458 913.932 340.477 922.881 331.277L931.463 322.463L931.695 345.058L950.54 344.98L950.675 301.453C950.675 296.427 950.965 291.634 951.487 286.802C952.144 280.772 954.85 276.442 958.967 272.267C968.786 262.255 983.823 258.699 996.348 265.753C999.421 267.493 1002.51 270.16 1005.26 272.17C1006.34 276.655 1006.13 281.293 1006.15 286.067L1006.32 345.077L1025.19 344.922L1025.75 310.518C1026.02 309.745 1026.13 308.933 1026.58 308.836C1028.92 308.334 1040.98 321.226 1043.61 323.951L1064.19 345.135L1091 344.961L1040.8 294.437L1092.08 243.255V243.236ZM887.838 326.096C870.114 326.096 855.734 311.774 855.734 294.108C855.734 276.442 870.114 262.12 887.838 262.12C905.563 262.12 919.943 276.442 919.943 294.108C919.943 311.774 905.563 326.096 887.838 326.096Z" fill="white"/>
<path d="M405.036 243.043L386.152 243.178L385.688 261.752C377.725 254.524 369.974 248.145 359.865 245.091C338.933 238.752 316.898 247.082 304.335 264.632C297.995 273.504 295.521 283.477 295.444 294.359C295.347 308.527 300.546 320.878 310.732 330.619C318.348 337.925 327.2 343.318 338.082 344.4C359.305 346.469 370.515 341.231 385.533 326.232C386.635 332.784 385.784 338.776 386.287 345.096H444.775L444.813 326.386L405.074 326.328V243.023L405.036 243.043ZM377.763 304.391C369.143 317.167 358.261 327.991 341.155 325.768C326.852 323.893 316.203 312.006 314.734 297.645C313.226 282.975 321.17 269.058 335.183 263.975C342.721 261.25 352.018 261.404 358.995 265.328C366.901 269.774 372.506 276.732 377.899 283.729L385.591 278.955L385.746 308.179C382.17 307.483 380.798 305.55 377.763 304.41V304.391Z" fill="white"/>
</svg>
