<svg width="1200" height="600" viewBox="0 0 1200 600" fill="none" xmlns="http://www.w3.org/2000/svg">
<path d="M628.471 252.895C602.467 258.021 577.934 242.219 552.584 252.764C526.056 263.767 516.211 298.766 535.673 320.674C532.664 326.975 517.028 336.737 516.963 343.365C516.865 351.625 529.327 354.857 535.837 355.543C528.477 362.856 520.463 369.027 519.351 380.225C514.346 430.863 620.555 427.827 626.705 380.029C632.396 335.79 575.972 344.018 548.037 339.839C546.827 339.643 544.407 338.892 544.57 337.259L551.308 328.216C557.49 329.489 563.378 332.329 569.986 332.819C605.77 335.398 634.522 298.309 610.415 267.783L628.471 265.432V252.895ZM552.813 357.306C565.406 360.832 586.112 358.285 597.331 365.076C601.878 367.786 600.471 375.393 599.032 379.833C588.369 412.809 516.799 391.032 552.813 357.306ZM589.546 306.112C583.135 316.429 572.145 318.225 561.448 313.132C540.285 303.043 548.135 270.199 570.967 267.195C594.584 264.126 599.981 289.364 589.546 306.112Z" fill="white"/>
<path d="M409.413 313.654C412.52 355.379 454.879 372.096 491.711 362.823C498.547 361.093 506.79 357.926 512.285 353.584V332.819C507.87 334.06 503.912 337.259 499.463 339.218C473.884 350.547 439.506 345.781 436.137 313.23H516.996C528.804 229.127 403.1 229.061 409.413 313.654ZM436.137 295.208C439.44 263.049 491.842 260.6 492.659 295.208H436.137Z" fill="white"/>
<path d="M738.344 341.863C738.344 343.756 739.194 345.421 739.194 347.282C739.194 352.376 739.129 357.502 739.162 362.595C733.535 362.693 727.877 362.497 722.25 362.562C719.012 362.595 715.218 364.75 712.568 361.321C712.307 352.702 711.325 344.181 711.653 335.529C712.241 319.596 716.003 298.864 710.475 283.487C704.031 265.432 680.12 267.326 671.779 283.193C660.919 303.86 668.475 339.545 666.153 362.595C659.742 362.758 653.298 362.366 646.887 362.562C645.48 362.595 639.462 364.456 639.462 362.203V252.895H659.873L663.013 268.566C675.181 252.83 695.199 246.463 714.433 252.111C749.334 262.298 738.442 314.993 738.344 341.863Z" fill="white"/>
<path d="M851.389 352.833C850.245 329.554 857.768 287.568 845.796 268.305C830.52 243.753 786.427 248.226 763.498 258.38V277.969C779.362 272.974 799.937 265.399 815.834 273.921C824.436 278.524 824.829 286.36 825.516 295.208C800.722 293.967 757.904 294.751 751.133 325.571C742.433 365.109 793.853 374.316 819.955 357.436C823.292 355.281 825.32 352.18 828.656 350.841L831.011 362.595H852.992C852.305 359.656 851.553 355.804 851.389 352.833ZM812.694 343.136C802.292 348.98 784.399 350.515 778.086 338.239C769.745 321.98 785.97 312.838 800.002 311.663C803.208 311.401 824.338 311.206 825.352 312.609C828.721 324.82 823.684 336.965 812.694 343.136Z" fill="white"/>
<path d="M1098.71 290.114C1095.31 244.21 1042.42 243.949 1010 258.772V277.969C1030.15 269.219 1073.78 260.731 1071.23 295.208C1045.95 294.163 1003.59 293.967 996.851 325.571C988.215 365.958 1045.98 376.111 1070.48 354.4C1071.89 353.159 1072.25 350.613 1074.37 350.841C1074.99 353.42 1076.07 361.909 1078.3 362.987C1081.05 364.358 1084.48 362.627 1087.29 362.562C1091.35 362.464 1095.44 362.693 1099.49 362.595C1095.37 338.728 1100.48 314.209 1098.71 290.114ZM1070.81 329.652C1070.64 330.109 1070.48 330.566 1070.25 331.023C1070.15 331.285 1070.06 331.546 1069.92 331.774C1069.89 331.807 1069.89 331.872 1069.86 331.905C1069.63 332.395 1069.34 332.884 1069.07 333.341C1069.01 333.407 1068.98 333.472 1068.94 333.537C1068.65 334.027 1068.32 334.484 1067.96 334.941C1067.08 336.149 1066.03 337.292 1064.89 338.369C1064.49 338.728 1064.07 339.088 1063.64 339.479C1063.61 339.512 1063.55 339.545 1063.51 339.577C1063.25 339.773 1063.02 340.002 1062.73 340.198C1061.81 340.916 1060.86 341.569 1059.85 342.189C1059.39 342.45 1058.93 342.744 1058.44 343.005C1057.95 343.299 1057.49 343.561 1057 343.789C1056.51 344.018 1056.06 344.279 1055.53 344.475C1055.04 344.671 1054.52 344.899 1054.03 345.095C1053.5 345.324 1053.01 345.519 1052.49 345.683C1051.97 345.846 1051.44 346.042 1050.92 346.172C1050.4 346.336 1049.87 346.466 1049.35 346.597C1048.83 346.727 1048.27 346.858 1047.75 346.956C1046.7 347.185 1045.62 347.348 1044.57 347.446C1044.05 347.511 1043.53 347.544 1043 347.576H1042.97C1042.09 347.642 1041.24 347.642 1040.39 347.576C1040.06 347.576 1039.73 347.576 1039.41 347.544C1039.31 347.544 1039.21 347.511 1039.08 347.511C1038.59 347.478 1038.1 347.413 1037.61 347.348C1037.25 347.282 1036.89 347.217 1036.56 347.152C1036.3 347.119 1036.04 347.054 1035.78 346.989C1035.51 346.923 1035.22 346.858 1034.96 346.793C1034.4 346.629 1033.88 346.466 1033.35 346.27C1030.84 345.356 1028.58 343.952 1026.75 341.961C1020.34 335.039 1020.24 323.514 1028.12 317.605C1037.02 310.912 1057.72 310.389 1068.52 311.63C1074.7 312.316 1072.21 325.571 1070.81 329.652Z" fill="white"/>
<path d="M940.132 338.304V358.677C926.982 365.011 910.627 368.406 896.725 362.431C870.296 351.004 882.431 303.337 880.501 280.679C880.272 277.904 879.749 274.508 877.721 272.484H862.413V257.596C874.319 258.053 880.927 251.752 887.076 242.643C890.314 237.844 898.165 220.246 902.875 219.234C903.954 218.973 905.263 219.267 906.375 219.201L907.16 250.936L908.337 252.895H936.991V272.484H909.122L907.945 274.443C907.749 281.234 907.487 288.025 907.16 294.816C906.571 306.765 904.216 326.159 909.613 337.031C915.763 349.405 930.449 341.308 940.132 338.304Z" fill="white"/>
<path d="M985.566 217.83C985.566 226.384 978.631 233.306 970.061 233.306C961.491 233.306 954.557 226.384 954.557 217.83C954.557 209.276 961.491 202.322 970.061 202.322C978.631 202.322 985.566 209.276 985.566 217.83Z" fill="white"/>
<path d="M983.309 252.895H956.617V363.411H983.309V252.895Z" fill="white"/>
<path d="M1002.93 391.979V416.661H999.009V397.072C997.734 397.496 997.505 400.631 997.178 401.904C996.393 405.201 995.411 412.841 994.136 415.322C993.22 417.151 991.355 417.249 989.981 415.877L984.879 397.855V416.661H980.953V391.979C981.444 390.346 985.631 390.673 987.168 390.901C988.64 396.027 989.36 401.969 991.061 406.964C991.388 408.009 991.29 409.348 992.729 409.609L996.72 390.901C998.78 390.771 1001.46 390.15 1002.93 391.979Z" fill="white"/>
<path d="M1057.89 391.979V416.661L1052.49 416.563L1045.33 398.639V416.661H1041.4V391.979C1041.83 390.542 1045.46 390.183 1046.5 391.587L1053.96 409.609V391.979C1053.96 390.509 1057.89 390.509 1057.89 391.979Z" fill="white"/>
<path d="M827.086 404.516C826.824 402.818 828.558 403.602 829.539 401.479C834.805 389.987 815.474 388.91 814.525 391.979V416.661H818.45V405.691L824.763 406.834L826.661 416.694C832.777 419.763 830.422 405.724 827.086 404.516ZM825.32 401.577L818.45 402.557L819.17 394.264C824.24 392.827 828.329 396.713 825.32 401.577Z" fill="white"/>
<path d="M903.791 390.967C895.809 392.795 893.912 419.632 908.272 417.412C917.398 416.008 918.805 387.571 903.791 390.967ZM906.735 414.343C900.258 414.963 900.422 395.439 905.361 394.035C912.753 391.946 912.721 413.788 906.735 414.343Z" fill="white"/>
<path d="M803.535 403.34H811.385V416.269L809.423 417.445L807.852 415.094C793.558 426.554 791.792 394.819 799.806 391.391C805.661 388.877 811.156 392.305 811.385 398.639L807.558 398.508C807.427 394.623 802.717 391.913 800.329 395.864C798.432 399.031 798.53 411.405 801.507 413.592C805.694 416.628 808.605 410.197 807.46 406.475H803.535V403.34Z" fill="white"/>
<path d="M966.594 390.967C960.085 392.468 960.183 406.279 961.524 411.372C963.388 418.522 973.496 419.959 976.309 413.2C979.514 405.463 978.795 388.191 966.594 390.967ZM967.15 413.592C963.879 411.209 963.781 395.276 968.164 394.035C976.636 391.652 975.393 419.599 967.15 413.592Z" fill="white"/>
<path d="M838.109 391.26C831.698 393.219 831.894 411.894 835.95 415.649C837.749 417.281 841.446 417.804 843.801 417.281C852.665 415.29 853.712 386.461 838.109 391.26ZM846.09 406.311C846.09 406.703 846.025 407.095 845.96 407.487C845.796 408.793 845.502 410.033 845.076 411.078C844.88 411.568 844.684 412.025 844.422 412.417C844.161 412.809 843.899 413.168 843.572 413.461C842.689 414.278 841.576 414.604 840.203 414.212C835.525 412.906 835.885 392.207 842.034 393.676C842.263 393.742 842.46 393.807 842.689 393.938C843.179 394.133 843.67 394.46 844.16 394.917C844.16 394.917 844.324 395.08 844.389 395.178C844.782 395.668 845.142 396.451 845.403 397.464C845.502 397.725 845.567 398.019 845.632 398.345C845.665 398.541 845.731 398.737 845.763 398.965C845.796 399.161 845.829 399.39 845.861 399.618C845.861 399.814 845.927 400.043 845.96 400.271C845.992 400.565 846.025 400.859 846.058 401.153C846.221 402.785 846.254 404.581 846.058 406.311H846.09Z" fill="white"/>
<path d="M857.67 417.086C850.081 414.767 853.81 398.215 853.09 392.077L856.917 390.803V411.568C856.917 415.061 864.768 415.061 864.768 411.568V390.803L868.595 392.077C868.235 400.435 872.487 421.624 857.67 417.086Z" fill="white"/>
<path d="M1101.88 411.568C1100.87 420.807 1084.45 418.946 1086.15 408.825L1089.98 408.923C1089.98 415.845 1099.13 416.433 1097.92 409.25C1097.2 405.005 1089.09 405.92 1087.36 401.741C1082.29 389.628 1100.97 385.939 1101.85 397.855L1097.92 398.639C1097.99 390.15 1087.23 394.329 1091.97 400.271C1095.54 404.712 1103.03 401.153 1101.88 411.568Z" fill="white"/>
<path d="M1033.42 392.109L1032.28 390.901H1028.15L1020.99 416.661L1024.95 416.302L1027.27 410.784L1033.85 410.36C1035.61 414.082 1034.07 417.673 1039.83 416.661L1033.42 392.109ZM1027.27 407.258L1030.41 395.505L1033.55 407.258H1027.27Z" fill="white"/>
<path d="M1006.86 390.803V416.661H1010.78V406.475C1017.52 406.932 1022.1 405.985 1021.84 398.247C1021.55 389.824 1013.21 390.607 1006.86 390.803ZM1017.46 401.773C1015.69 403.569 1013.07 403.438 1010.78 403.34L1011.14 394.688C1015.86 392.664 1019.52 397.039 1017.46 401.773Z" fill="white"/>
<path d="M1074.37 413.527H1083.79V416.661H1070.45V390.803H1082.62L1083.79 394.721H1074.37V401.773H1083.01V404.516L1074.37 404.908V413.527Z" fill="white"/>
<path d="M872.618 390.803V416.661H876.543V406.475C882.464 406.997 887.534 405.887 887.599 399.031C887.697 390.02 879.422 390.607 872.618 390.803ZM882.627 402.361L876.543 403.34C877.034 399.912 874.613 392.991 879.912 394.068C884.034 394.917 884.557 399.129 882.627 402.361Z" fill="white"/>
<path d="M958.972 408.434C957.566 413.527 957.173 417.51 950.73 417.51C941.538 417.543 941.636 405.756 942.552 399.096C944.122 387.702 959.398 387.538 958.187 399.423C952.43 400.826 955.734 392.109 949.323 394.068C945.136 395.341 945.104 412.906 949.323 414.18C953.804 415.551 954.001 411.307 955.145 408.14L958.972 408.434Z" fill="white"/>
<path d="M922.076 394.721V401.773H931.496L931.169 404.973L922.076 405.691V416.661H918.15V390.803H931.496V394.721H922.076Z" fill="white"/>
<path d="M1065.74 390.803V416.661H1061.81V391.587L1065.74 390.803Z" fill="white"/>
<path d="M373.334 267.783L367.217 269.905C351.516 273.137 335.652 275.814 319.591 276.435C276.12 278.132 226.368 277.643 182.994 275.586C160.294 274.508 138.149 270.852 115.448 269.35C113.06 269.187 110.411 268.338 107.99 268.175C127.093 267.75 145.999 264.91 164.906 262.298C218.027 261.612 274.419 258.021 327.441 260.698C342.913 261.482 358.156 265.106 373.334 267.783Z" fill="white"/>
<path d="M370.978 329.685C370.619 331.252 368.918 331.154 367.707 331.513C354.329 335.366 333.591 337.782 319.591 338.337C277.624 340.067 228.101 339.936 186.069 338.337C178.873 338.076 171.284 337.423 164.121 336.737C145.411 334.909 126.962 330.468 107.99 330.86C112.864 328.803 118.261 330.142 123.331 329.717C145.345 327.889 166.999 323.384 189.209 322.6C234.153 321 280.045 323.906 325.086 322.6C340.591 323.775 355.801 326.616 370.978 329.685Z" fill="white"/>
<path d="M396.885 361.028C397.081 362.236 395.413 361.974 394.53 362.203C381.02 365.598 366.399 367.166 352.563 368.896C301.012 366.904 247.629 371.41 196.275 368.896C179.985 368.08 163.826 364.129 147.635 362.595C140.635 361.942 133.046 362.236 126.046 361.419C135.238 360.375 144.691 360.407 153.915 359.46C169.616 357.828 185.12 354.596 200.985 353.943C250.998 351.886 302.418 355.575 352.563 353.943L396.885 361.028Z" fill="white"/>
<path d="M396.1 236.44C395.871 237.844 394.497 237.779 393.45 238.105C379.712 242.513 362.212 243.166 347.852 245.092C292.867 242.513 234.382 249.173 179.92 243.394C161.962 241.5 144.2 237.583 126.046 237.615C134.714 236.211 143.612 236.571 152.345 235.656C167.49 234.089 182.569 230.824 197.845 230.139C249.068 227.853 301.96 231.934 353.348 230.139L396.1 236.44Z" fill="white"/>
<path d="M416.511 392.37C416.707 393.742 414.712 393.121 413.763 393.154C407.45 393.415 401.268 393.285 394.922 393.938C379.516 395.57 364.306 399.945 348.637 400.239C297.904 397.398 242.592 404.646 192.48 398.541C175.896 396.517 159.574 392.142 142.532 392.762C150.35 391.228 158.429 391.652 166.378 390.705C176.093 389.563 185.775 387.081 195.522 386.102C244.914 381.107 297.316 386.624 347.067 384.502C363.03 384.829 378.436 388.975 394.137 390.803C401.562 391.652 409.118 391.326 416.511 392.37Z" fill="white"/>
<path d="M358.025 299.909C344.091 303.076 329.96 305.753 315.666 306.994C261.76 304.415 204.289 311.075 150.873 305.296C132.948 303.37 115.219 299.126 96.9999 299.517C96.9999 298.277 118.981 297.82 121.729 297.558C137.135 296.024 152.509 292.726 168.013 292.041C217.372 289.788 268.465 293.836 318.021 292.041L359.203 298.342C359.399 300.399 359.268 299.615 358.025 299.909Z" fill="white"/>
<path d="M415.726 205.881L407.483 207.448C340.82 217.242 273.078 212.77 205.695 213.749L140.177 206.272C156.467 206.305 172.396 202.844 188.49 201.212C197.747 200.232 207.363 199.155 216.686 198.796C256.886 197.229 306.245 196.772 346.282 198.796C369.474 199.971 392.371 206.501 415.726 205.881Z" fill="white"/>
<path d="M367.838 175.321C368.034 176.693 366.039 176.072 365.091 176.105C359.137 176.334 352.988 176.268 347.035 176.889C313.965 180.284 288.615 185.018 254.4 182.374C234.316 180.806 214.592 175.615 194.345 175.713C203.013 174.375 211.91 174.734 220.643 173.754C235.298 172.089 249.559 168.857 264.573 168.237C292.736 167.029 315.012 170.685 342.324 173.754C350.764 174.701 359.366 174.766 367.838 175.321Z" fill="white"/>
<path d="M370.978 422.93C371.175 424.301 369.179 423.681 368.231 423.713C362.735 423.909 356.357 423.974 350.96 424.497C323.484 427.272 300.031 432.039 271.638 430.798C254.695 430.047 238.209 426.129 221.429 424.497C215.017 423.876 207.821 424.334 201.41 423.321C224.503 422.799 247.008 416.792 270.068 415.845C286.489 415.159 304.708 415.714 321.03 417.543C337.647 419.436 354.035 423.648 370.978 422.93Z" fill="white"/>
</svg>
