<svg width="1200" height="600" viewBox="0 0 1200 600" fill="none" xmlns="http://www.w3.org/2000/svg">
<path d="M1160.13 258.886V267.042H1171.55V272.751C1162.37 272.785 1158.73 270.373 1160.13 281.723H1174V288.248C1167.68 287.67 1160.13 289.029 1153.97 288.282C1153.16 288.18 1151.15 287.908 1151.15 287.024V253.585C1151.15 251.988 1156.83 252.26 1158.12 252.328C1163.32 252.599 1168.87 253.177 1174 253.993V258.071C1171.93 259.906 1160.81 258.207 1160.13 258.886Z" fill="white"/>
<path d="M419.226 333.411C419.022 343.131 411.031 345.679 402.633 345.339C395.968 345.068 393.996 343.131 390.086 338.271C377.879 323.081 365.911 300.584 354.894 283.762C353.194 281.179 351.46 278.053 349.182 276.014L349.964 344.524H331.195V260.11C332.929 251.41 351.766 251.104 357.342 255.998L400.559 321.687V253.177H418.512C418.444 278.325 418.58 303.506 418.478 328.654C418.478 330.319 419.26 331.814 419.226 333.411Z" fill="white"/>
<path d="M252.072 274.79V290.694H310.011V304.967C310.011 304.967 308.855 306.191 308.787 306.191H252.072V322.095C252.072 324.236 256.866 328.212 259.009 328.212H313.276V344.524H255.744C253.568 344.524 246.224 342.587 243.878 341.703C236.601 338.883 233.133 333.989 232.453 326.207C231.263 312.138 231.263 285.563 232.453 271.494C233.201 262.964 237.621 258.037 245.578 255.25C246.7 254.842 252.616 253.177 253.296 253.177H313.276V268.673H263.089C260.607 268.673 252.072 271.562 252.072 274.79Z" fill="white"/>
<path d="M527.011 292.326V327.804C527.011 328.246 525.311 333.037 524.903 333.853C523.135 337.353 518.987 340.004 515.417 341.499C503.89 346.291 460.98 346.155 449.521 340.854C445.271 338.883 441.531 335.178 440.103 330.659C437.518 322.299 438.13 285.121 438.879 274.756C439.593 264.731 443.129 258.648 452.955 255.386C454.587 254.842 460.878 253.177 462.17 253.177H522.115V268.673H467.882C464.992 268.673 459.484 272.174 459.348 275.64C460.266 290.083 457.954 306.293 459.28 320.498C459.552 323.624 460.572 326.207 463.598 327.6C468.426 329.775 489.473 329.537 495.628 329.061C498.416 328.824 507.426 327.294 507.426 323.726V293.549C507.426 293.549 508.582 292.326 508.65 292.326H527.011Z" fill="white"/>
<path d="M642.482 342.043L601.952 258.614C593.962 249.133 578.797 250.526 572.574 261.605C558.293 286.82 548.025 316.488 533.914 342.043L533.54 344.524H554.349C557.375 341.193 562.646 323.658 565.944 322.673C566.692 322.435 567.406 322.537 568.188 322.469C581.415 321.143 597.022 323.42 610.52 322.639C613.139 323.522 618.817 341.601 622.081 344.524H642.856L642.482 342.043ZM571.894 307.822L586.583 272.751L603.72 307.822H571.894Z" fill="white"/>
<path d="M792.362 340.684L752.886 259.43C746.97 250.594 733.879 250.696 726.161 256.915C713.002 282.402 700.013 308.366 687.874 334.431C686.344 337.693 684.916 341.159 683.658 344.524H705.692L714.736 323.794L717.49 322.469L760.639 322.638C762.339 323.216 770.499 341.363 771.791 344.524H792.974L792.362 340.684ZM722.012 307.822L737.925 272.751L754.654 307.822H722.012Z" fill="white"/>
<path d="M673.05 253.177H653.465V344.524H673.05V253.177Z" fill="white"/>
<path d="M1012.46 310.269L1006.71 345.305C1004.7 345.033 995.966 346.053 995.286 344.83L991.24 321.687L986.275 345.271C983.963 345.101 976.415 346.155 975.293 344.558L969.206 310.269C971.212 310.575 976.823 309.487 977.843 311.016L981.481 335.552L985.935 313.531C984.983 309.249 994.674 309.623 995.422 310.744C996.952 312.987 999.366 335.552 1000.62 335.552C1002.19 331.236 1002.66 313.735 1004.7 311.084C1005.89 309.487 1010.45 310.541 1012.46 310.269Z" fill="white"/>
<path d="M938.061 251.716C918.442 253.483 918.51 285.189 934.899 288.69C962.406 294.603 962.678 249.507 938.061 251.716ZM941.019 282.505C928.608 284.34 929.458 259.974 937.993 258.207C949.247 255.896 949.859 281.179 941.019 282.505Z" fill="white"/>
<path d="M938.061 309.657C917.966 311.424 919.02 343.81 935.443 346.087C963.664 349.995 961.182 307.618 938.061 309.657ZM935.817 339.154C930.819 336.062 930.751 321.857 934.389 317.881C935.035 317.167 936.939 316.148 937.857 316.012C951.934 313.803 948.67 347.073 935.817 339.154Z" fill="white"/>
<path d="M1087.64 329.979C1087.98 329.367 1091.92 328.008 1092.87 324.984C1095.69 315.842 1089.68 311.254 1081.41 310.269C1076.96 309.759 1071.69 310.643 1067.13 310.269V345.339H1075.29V332.29C1081 330.829 1082.67 343.368 1085.87 344.932C1088.18 346.053 1092.26 345 1094.84 345.339C1096.48 343.776 1086.11 332.528 1087.64 329.979ZM1075.29 326.581V316.794C1088.76 314.449 1088.32 328.654 1075.29 326.581Z" fill="white"/>
<path d="M902.087 253.789C901.407 253.517 896.579 252.361 896.205 252.361H883.148C883.148 252.361 881.924 253.483 881.924 253.585V288.248H890.9V276.829C897.361 277.407 907.255 275.606 908.649 268.062C909.771 261.945 908.309 256.168 902.087 253.789ZM890.9 270.305V258.886C903.345 256.813 903.379 272.378 890.9 270.305Z" fill="white"/>
<path d="M997.836 277.237C998.21 287.908 986.717 290.491 978.149 288.69C977.061 288.486 970.362 285.291 970.124 284.883C969.24 283.354 972.607 279.616 973.831 279.412C974.681 279.242 987.839 287.228 988.622 278.732C989.234 272.038 970.771 274.655 970.771 262.556C970.771 251.376 988.52 248.725 994.946 254.774C997.19 256.881 995.286 259.872 993.11 260.382C991.41 260.789 979.781 255.726 979.781 261.741C979.815 267.11 997.428 264.799 997.836 277.237Z" fill="white"/>
<path d="M908.887 320.43C908.343 314.279 902.733 310.982 897.021 310.269C892.328 309.691 886.718 310.676 881.924 310.269V344.931C881.924 346.495 888.962 346.597 890.118 345.815C891.784 344.66 890.492 336.3 890.9 333.921C901.237 334.872 909.907 332.629 908.887 320.43ZM890.9 328.212V316.793C904.195 314.584 903.583 329.469 890.9 328.212Z" fill="white"/>
<path d="M1125.89 287.874C1123.71 288.315 1116.91 288.961 1115.65 287.432L1104.98 254.842C1103.55 251.172 1113.1 251.919 1114.05 253.143C1115.18 254.638 1118.78 271.97 1120.04 275.708C1120.41 276.795 1120.28 278.188 1121.77 278.46C1123.17 273.975 1125.68 255.828 1127.89 253.177C1129.29 251.512 1134.25 252.701 1136.46 252.361C1137.79 253.653 1127.01 283.626 1125.89 287.874Z" fill="white"/>
<path d="M1050.81 345.34H1027.96V310.269H1050V316.794H1036.94V324.95H1048.36V330.659H1036.94V338.815H1049.59C1051.15 338.815 1050.88 344.014 1050.81 345.34Z" fill="white"/>
<path d="M843.57 242.574H838.673V355.127H843.57V242.574Z" fill="white"/>
<path d="M1066.32 252.361C1066.32 253.483 1065.7 259.396 1065.47 259.668C1064.99 260.11 1058.05 259.43 1056.52 259.702V288.248H1047.55V259.702C1045.4 259.328 1040.03 260.415 1038.5 259.362C1037.01 258.275 1037.58 252.361 1038.98 252.361H1066.32Z" fill="white"/>
<path d="M1023.07 253.585V288.248H1014.09V253.585C1014.09 251.784 1023.07 251.784 1023.07 253.585Z" fill="white"/>
<path d="M1089.98 253.177H1081.82V288.248H1089.98V253.177Z" fill="white"/>
<path d="M125.211 291.51L114.126 281.383C79.7842 256.541 32.6236 278.359 30.1414 320.056C27.8293 320.464 28.8154 319.512 28.3053 318.255C27.0473 315.094 26.8772 311.56 25.2451 308.638C25.8572 301.365 24.4631 292.937 25.2451 285.801C28.1013 260.483 50.4406 232.855 75.058 225.889C118.104 213.621 145.476 254.638 125.211 291.51Z" fill="white"/>
<path d="M171.793 324.644C167.543 332.392 157.853 341.091 149.25 344.082C128.407 351.32 106.374 339.902 95.425 322.095C99.4372 320.498 103.823 319.784 107.87 318.221C142.79 304.696 152.956 260.959 128.883 232.345L119.09 223C162.953 229.559 193.487 284.781 171.793 324.644Z" fill="white"/>
<path d="M154.996 352.68C154.996 354.753 152.14 357.573 150.61 358.865C122.252 383.061 71.6916 382.381 48.1623 352.034C23.8849 320.769 47.0402 280.805 84.8164 281.723C80.7361 294.84 79.5121 306.429 84.0003 319.648C91.8888 342.858 116.03 358.627 140.648 355.874C142.96 355.602 154.01 351.796 154.996 352.68Z" fill="white"/>
</svg>
