<?xml version="1.0" encoding="UTF-8"?>
<svg id="Layer_1" data-name="Layer 1" xmlns="http://www.w3.org/2000/svg" viewBox="0 0 1011.6 167.64">
  <defs>
    <style>
      .cls-1 {
        fill: currentColor;
      }
    </style>
  </defs>
  <path class="cls-1" d="M252.78,29.74c-17.99.06-32.93,10.03-39.44,26.99-6.09,15.84-6.06,34.01.48,49.75,6.62,15.96,20.75,25.55,38.46,25.81,18.29.26,33.3-9.81,40.01-26.34,6.46-15.92,6.36-34.3-.16-50.18-6.79-16.52-21.76-26.1-39.35-26.03ZM280.12,94.1c-1.05,14.48-11.92,24.35-26.86,24.5-14.76.15-26.31-9.31-27.34-23.93-.62-8.74-.56-17.92-.09-26.72.81-15.32,13.06-24.81,27.73-24.53,14.11.26,25.4,9.57,26.52,24.13.67,8.7.67,17.84.04,26.55ZM995,77.43c-14.24-4.94-28.26-3.5-36.42-10.31-4.47-3.73-4.46-10.16-2.5-15.28,5.13-13.38,33.57-11.48,43.32,2.98l10.26-9.21c-12.11-16.08-34.33-19.21-51.86-12.89-11.22,4.04-17.58,13.66-17.92,25.18-.35,11.93,6.13,21.43,17.63,25.59,16.98,6.15,37.29,2.27,39.13,17.88.86,7.23-3.04,13.86-10.22,16.09-14.94,4.64-29.65-.76-39.31-13.37l-11.11,8.88c13.23,18.28,36.03,23.51,56.63,16.29,12.79-4.49,19.27-15.71,18.96-28.41-.26-10.9-6.1-19.78-16.59-23.42h0ZM453.19,4.79l-15.14.05-.08,27.05-15.95.14.06,13.52,15.89.28.09,69.7c.01,7.74,5.94,14,13.73,14.4,7.2.38,13.59.31,21.17.27l-.03-13.65-19.66-.09-.03-70.71,21.21-.16.06-13.55-21.23-.22s-.09-27.03-.09-27.03ZM499.3,32.19h15.23v97.32h-15.23V32.19ZM499.3,0h15.23v16.46h-15.23V0ZM893.75,29.69c-13.46-.02-24.33,6.51-29.66,19.65-4.54-12.26-14.5-18.04-26.27-19.35-13.68-1.53-24.48,4.7-30.16,17.62l-.7-15.45-14.94.17-.02,97.61,15.21.09.07-68.96c.01-6.04,3.99-11.54,9.32-14.22,7.6-3.81,17.15-4.9,24.87-.58,6.16,3.44,9.55,11.3,9.59,18.57l.29,65.07,15.14-.04.12-69.6c0-5.38,3.77-10.33,7.72-12.67,8.31-4.95,19.24-6.05,27.59-.62,5.47,3.55,8.41,11.31,8.43,17.99l.23,64.91,15.19.05v-65.09c.01-5.14-1.15-10.48-2.48-15.14-4.52-13.16-15.92-20-29.54-20.01h0ZM644.81,29.72c-13.68-.45-24.99,5.89-30.43,19.61-4.68-12.84-15.67-18.99-28.58-19.51-12.52-.5-21.74,5.81-26.85,17.66l-.64-15.24h-14.99l-.03,97.75,14.92.04.08-67.93c0-5.91,2.94-11.5,8.08-14.55,7.85-4.66,18.61-5.89,26.59-.7,5.87,3.82,8.58,11.87,8.61,19.01l.23,64.06h14.95l.05-68.66c0-8.3,5.92-14.16,13.06-16.27,7.52-2.23,16.03-2.59,22.5,2.58,4.67,3.73,7.47,10.9,7.5,17.3l.24,65.12,14.88-.15.07-62.96c0-6.82-.97-13.48-3.38-19.58-4.75-11.26-14.87-17.18-26.86-17.58ZM361.84,30.07c-10.98,1.36-19.11,6.95-23.94,17.28l-.58-15.2-15.55.31v135.18l15.71-.12.16-53.34c6.02,11.16,14.95,17.29,27.12,17.97,17.17.95,31.8-8.36,38.29-24.49,6.2-16.96,6.45-35.94.1-52.91-6.56-17.52-23.07-26.93-41.31-24.68h0ZM377.09,115.17c-13.79,7.08-37.01,3.15-39.59-14.28l.09-40.14c.03-12.45,22.22-22.8,39.48-13.96,8.16,4.19,13.06,12.89,13.61,22.02,1.02,16.94,2.73,37.98-13.59,46.36ZM732.76,29.72c-17.67.2-32.38,9.99-38.8,26.66-6.03,15.64-6.08,33.43-.07,49.16,6.82,17.85,23.05,27.66,41.92,26.74,15.55-.76,29.91-8.56,36-22.86l-10.86-7.68c-5.49,11.42-15.76,17.51-28.73,16.79-18.73-1.05-28.09-16.49-26.57-33.68l69.8-.05c.32-9.87-.29-19.09-3.42-27.94-6.06-17.12-21.25-27.34-39.27-27.14ZM758.83,73.08l-52.85.05c-1.25-10.5,4.37-21.71,13.08-26.68,9.86-5.63,22.44-5.1,30.86,2.17,7.05,6.08,9.54,14.99,8.91,24.46ZM71.3,81.19c-5.88-4.94-14.42-9.29-22.43-9.32L0,71.66l.1,31.38,46.11.03.16,45.9,35.43-.07-.06-43.14c-1.05-9.06-3.11-18.41-10.44-24.57ZM122.28,46.61l-.08-46.06h-34.47l.21,43.4c.1,21,15.46,33.18,35.73,34.17l43.86-.03-.1-31.39s-45.15-.09-45.15-.09Z"/>
</svg>