<svg width="803" height="168" viewBox="0 0 803 168" fill="none" xmlns="http://www.w3.org/2000/svg">
<path d="M83.2882 55.77C76.4982 39.25 61.5282 29.67 43.9382 29.74C25.9482 29.8 11.0082 39.77 4.49818 56.73C-1.59182 72.57 -1.56181 90.74 4.97819 106.48C11.5982 122.44 25.7282 132.03 43.4382 132.29C61.7282 132.55 76.7382 122.48 83.4482 105.95C89.9082 90.03 89.8082 71.65 83.2882 55.77ZM71.2782 94.1C70.2282 108.58 59.3582 118.45 44.4182 118.6C29.6582 118.75 18.1082 109.29 17.0782 94.67C16.4582 85.93 16.5182 76.75 16.9882 67.95C17.7982 52.63 30.0482 43.14 44.7182 43.42C58.8282 43.68 70.1182 52.99 71.2382 67.55C71.9082 76.25 71.9082 85.39 71.2782 94.1Z" fill="black"/>
<path d="M786.158 77.43C771.918 72.49 757.898 73.93 749.738 67.12C745.268 63.39 745.278 56.96 747.238 51.84C752.368 38.46 780.808 40.36 790.558 54.82L800.818 45.61C788.708 29.53 766.488 26.4 748.958 32.72C737.738 36.76 731.378 46.38 731.038 57.9C730.688 69.83 737.168 79.33 748.668 83.49C765.648 89.64 785.958 85.76 787.798 101.37C788.658 108.6 784.758 115.23 777.578 117.46C762.638 122.1 747.928 116.7 738.268 104.09L727.158 112.97C740.388 131.25 763.188 136.48 783.788 129.26C796.578 124.77 803.058 113.55 802.748 100.85C802.488 89.95 796.648 81.07 786.158 77.43Z" fill="black"/>
<path d="M244.348 4.79004L229.208 4.84003L229.128 31.89L213.178 32.03L213.238 45.55L229.128 45.83L229.218 115.53C229.228 123.27 235.158 129.53 242.948 129.93C250.148 130.31 256.538 130.24 264.118 130.2L264.088 116.55L244.428 116.46L244.398 45.75L265.608 45.59L265.668 32.04L244.438 31.82L244.348 4.79004Z" fill="black"/>
<path d="M305.688 32.19H290.458V129.51H305.688V32.19Z" fill="black"/>
<path d="M305.688 0H290.458V16.46H305.688V0Z" fill="black"/>
<path d="M684.908 29.69C671.448 29.67 660.578 36.2 655.248 49.34C650.708 37.08 640.748 31.3 628.978 29.99C615.298 28.46 604.498 34.69 598.818 47.61L598.118 32.16L583.178 32.33L583.158 129.94L598.368 130.03L598.438 61.07C598.448 55.03 602.428 49.53 607.758 46.85C615.358 43.04 624.908 41.95 632.628 46.27C638.788 49.71 642.178 57.57 642.218 64.84L642.508 129.91L657.648 129.87L657.768 60.27C657.768 54.89 661.538 49.94 665.488 47.6C673.798 42.65 684.728 41.55 693.078 46.98C698.548 50.53 701.488 58.29 701.508 64.97L701.738 129.88L716.928 129.93V64.84C716.938 59.7 715.778 54.36 714.448 49.7C709.928 36.54 698.528 29.7 684.908 29.69Z" fill="black"/>
<path d="M435.968 29.72C422.288 29.27 410.978 35.61 405.538 49.33C400.858 36.49 389.868 30.34 376.958 29.82C364.438 29.32 355.218 35.63 350.108 47.48L349.468 32.24H334.478L334.448 129.99L349.368 130.03L349.448 62.1C349.448 56.19 352.388 50.6 357.528 47.55C365.378 42.89 376.138 41.66 384.118 46.85C389.988 50.67 392.698 58.72 392.728 65.86L392.958 129.92H407.908L407.958 61.26C407.958 52.96 413.878 47.1 421.018 44.99C428.538 42.76 437.048 42.4 443.518 47.57C448.188 51.3 450.988 58.47 451.018 64.87L451.258 129.99L466.138 129.84L466.208 66.88C466.208 60.06 465.238 53.4 462.828 47.3C458.078 36.04 447.958 30.12 435.968 29.72Z" fill="black"/>
<path d="M194.308 54.75C187.748 37.23 171.238 27.82 152.998 30.07C142.018 31.43 133.888 37.02 129.058 47.35L128.478 32.15L112.928 32.46V167.64L128.638 167.52L128.798 114.18C134.818 125.34 143.748 131.47 155.918 132.15C173.088 133.1 187.718 123.79 194.208 107.66C200.408 90.7 200.658 71.72 194.308 54.75ZM168.248 115.17C154.458 122.25 131.238 118.32 128.658 100.89L128.748 60.75C128.778 48.3 150.968 37.95 168.228 46.79C176.388 50.98 181.288 59.68 181.838 68.81C182.858 85.75 184.568 106.79 168.248 115.17Z" fill="black"/>
<path d="M566.608 84.8C566.928 74.93 566.318 65.71 563.188 56.86C557.128 39.74 541.938 29.52 523.918 29.72C506.248 29.92 491.538 39.71 485.118 56.38C479.088 72.0201 479.038 89.8101 485.048 105.54C491.868 123.39 508.098 133.2 526.968 132.28C542.518 131.52 556.878 123.72 562.968 109.42L552.108 101.74C546.618 113.16 536.348 119.25 523.378 118.53C504.648 117.48 495.288 102.04 496.808 84.8501L566.608 84.8ZM510.218 46.4501C520.078 40.8201 532.658 41.35 541.078 48.62C548.128 54.7 550.618 63.61 549.988 73.08L497.138 73.1301C495.888 62.6301 501.508 51.4201 510.218 46.4501Z" fill="black"/>
</svg>
